<svg xmlns="http://www.w3.org/2000/svg" viewBox="5206.2 19760 33.6 41">
  <defs>
    <style>
      .cls-1 {
        fill: #fff;
      }

      .cls-2 {
        fill: none;
        stroke: #82c289;
        stroke-width: 1.5px;
      }

      .cls-3, .cls-4 {
        stroke: none;
      }

      .cls-4 {
        fill: #82c289;
      }
    </style>
  </defs>
  <g id="Group_224" data-name="Group 224" transform="translate(4178 19221)">
    <g id="Path_834" data-name="Path 834" class="cls-1" transform="translate(1028.2 539)">
      <path class="cls-3" d="M 32.84982299804688 40.25 L 0.7500014901161194 40.25 L 0.7500014901161194 0.75 L 22.93602561950684 0.75 L 32.84982299804688 10.36002540588379 L 32.84982299804688 40.25 Z"/>
      <path class="cls-4" d="M 32.09982299804688 39.5 L 32.09982299804688 10.67753124237061 L 22.6321907043457 1.5 L 1.500001549720764 1.5 L 1.500001549720764 39.5 L 32.09982299804688 39.5 M 33.59982299804688 41 L 1.499023483120254e-06 41 L 1.499023483120254e-06 0 L 23.23988151550293 0 L 33.59982299804688 10.04249954223633 L 33.59982299804688 41 Z"/>
    </g>
    <path id="Path_835" data-name="Path 835" class="cls-2" d="M5252.17,19642.916v9.8H5262.4" transform="translate(-4201.147 -19103.146)"/>
    <path id="Path_836" data-name="Path 836" class="cls-2" d="M5210.224,19623v19.346" transform="translate(-4165.876 -19072.398)"/>
    <path id="Path_837" data-name="Path 837" class="cls-2" d="M6030.742,2562.971l6.273,7.218,6.463-7.218" transform="translate(-4992.714 -1999.855)"/>
  </g>
</svg>
