<?xml version="1.0" encoding="UTF-8"?>
<svg width="336px" height="166px" viewBox="0 0 336 166" version="1.1" xmlns="http://www.w3.org/2000/svg" xmlns:xlink="http://www.w3.org/1999/xlink">
    <!-- Generator: Sketch 49.3 (51167) - http://www.bohemiancoding.com/sketch -->
    <title>Group</title>
    <desc>Created with Sketch.</desc>
    <defs></defs>
    <g id="Page-1" stroke="none" stroke-width="1" fill="none" fill-rule="evenodd">
        <g id="Group">
            <path d="M35.839516,157.278588 C4.49904343,140.028544 -7.00743167,100.693411 10.095604,69.272472 L0.68488,64.09234 L12.9019,41.8402 L145.570176,114.800868 L133.354732,137.051776 L123.944008,131.871644 C106.582643,163.156848 67.1933831,174.515641 35.839516,157.278588 Z M31.954016,81.300888 C21.4680529,100.615237 28.5559505,124.772324 47.8151836,135.359175 C67.0744168,145.946027 91.2682493,138.984591 101.9557,119.781 L74.065592,104.467056 C71.8970426,108.394376 66.9553641,109.820141 63.028044,107.651592 C59.1007239,105.483043 57.6749586,100.541364 59.843508,96.614044 L31.954016,81.300888 Z" id="Path_1443" fill="#8B51C6" fill-rule="nonzero"></path>
            <path d="M189.571667,1.85514138 C195.745809,-1.10072219 203.053137,-0.365591708 208.514787,3.76085363 C213.976436,7.88729896 216.680065,14.7157575 215.523529,21.4625779 L208.719191,61.9445313 L201.914383,102.425602 C200.775133,109.175221 195.980416,114.73306 189.4708,116.849694 C182.961183,118.966327 175.814646,117.291244 170.92361,112.502402 L116.460592,59.1978095 L70.8398902,51.4472046 L70.0271203,56.146886 L56.952034,53.9750484 L62.6939244,19.7978735 L75.7394859,22.0590268 L75.0342198,26.4070792 L121.181374,34.1722325 L189.571667,1.85514138 Z" id="Path_1442" fill="#000000" fill-rule="nonzero"></path>
            <path d="M245.950248,60.0604266 L245.950248,84.0228289 L272.640678,84.0228289 C277.408605,84.0228289 281.279416,83.1257839 284.253227,81.3316668 C287.227037,79.5375498 288.71392,76.354883 288.71392,71.7835711 C288.71392,66.7207203 286.747794,63.3783058 282.815482,61.7562274 C279.423864,60.6256879 275.098386,60.0604266 269.83892,60.0604266 L245.950248,60.0604266 Z M245.950248,102.013063 L245.950248,130.989138 L272.640678,130.989138 C277.408605,130.989138 281.119668,130.350147 283.773979,129.072145 C288.59106,126.712759 290.999565,122.190668 290.999565,115.505739 C290.999565,109.853042 288.66479,105.969942 283.99517,103.856325 C281.390014,102.676632 277.728104,102.062217 273.00933,102.013063 L245.950248,102.013063 Z M305.377006,52.7611102 C308.719471,57.381576 310.390678,62.9113059 310.390678,69.3504657 C310.390678,75.986241 308.719471,81.3193583 305.377006,85.3499774 C303.509158,87.6110564 300.756581,89.6754889 297.119193,91.5433367 C302.673583,93.5586463 306.86389,96.7536013 309.690238,101.128298 C312.516587,105.502994 313.92974,110.811535 313.92974,117.054079 C313.92974,123.493239 312.307686,129.268734 309.063529,134.380739 C306.999066,137.772358 304.418525,140.623241 301.32183,142.933473 C297.831904,145.587784 293.715327,147.40645 288.971977,148.389528 C284.228626,149.372606 279.079833,149.864138 273.525443,149.864138 L224.27349,149.864138 L224.27349,41.1854266 L277.064506,41.1854266 C290.385211,41.3820422 299.822616,45.2405648 305.377006,52.7611102 Z" id="B" fill="#8B51C6" transform="translate(269.101615, 95.524782) rotate(-149.743563) translate(-269.101615, -95.524782) "></path>
        </g>
    </g>
</svg>