<svg xmlns="http://www.w3.org/2000/svg" viewBox="0 0 395.947 240.227">
  <defs>
    <style>
      .cls-1, .cls-2 {
        fill: #8b51c6;
      }

      .cls-2 {
        font-size: 151px;
        font-family: Helvetica-Bold, Helvetica;
        font-weight: 700;
      }
    </style>
  </defs>
  <g id="Group_983" data-name="Group 983" transform="translate(11.425 -104.822)">
    <path id="Path_1443" data-name="Path 1443" class="cls-1" d="M105.053,112.589a64.954,64.954,0,0,0,34.238-85.043l9.875-4.223L139.161,0,0,59.575,10.005,82.9l9.875-4.223A64.977,64.977,0,0,0,105.053,112.589ZM42.814,68.866,72.049,56.327h0A8.121,8.121,0,1,0,86.992,49.96h0l29.236-12.539A39.933,39.933,0,0,1,42.814,68.866Z" transform="matrix(0.616, 0.788, -0.788, 0.616, 81.422, 154.964)"/>
    <path id="Path_1442" data-name="Path 1442" d="M43.723,17.573,40.15,93.13l-28.521,37.1-3.508-2.664L0,138.023l27.481,21.115,8.056-10.525-3.768-2.924L60.03,109.047l72.634-23.063a18.385,18.385,0,0,0,5.652-32.094L105.768,28.877,73.219,3.864A18.309,18.309,0,0,0,43.723,17.573Z" transform="translate(206.136 104.822) rotate(62)"/>
    <text id="B" class="cls-2" transform="matrix(-0.864, -0.504, 0.504, -0.864, 366.873, 214.083)"><tspan x="0" y="0">B</tspan></text>
  </g>
</svg>
