<?xml version="1.0" encoding="UTF-8"?>
<svg width="286px" height="158px" viewBox="0 0 286 158" version="1.1" xmlns="http://www.w3.org/2000/svg" xmlns:xlink="http://www.w3.org/1999/xlink">
    <!-- Generator: Sketch 49.3 (51167) - http://www.bohemiancoding.com/sketch -->
    <title>Group</title>
    <desc>Created with Sketch.</desc>
    <defs></defs>
    <g id="Page-1" stroke="none" stroke-width="1" fill="none" fill-rule="evenodd">
        <g id="Group" fill-rule="nonzero">
            <path d="M23.2091324,50.6148023 L135.427915,0.539456634 L145.768764,23.7136353 L33.5082703,73.7402756 L55.2703916,122.476186 L32.1497216,132.776713 L10.3876002,84.0408025 L0.0852678259,60.9177365 L23.2091324,50.6148023 Z M28.8269362,69.1064936 C28.7582462,67.2957765 27.2578937,65.8703201 25.4460337,65.8943624 C24.1112838,65.9275576 22.9280548,66.7617724 22.44839,68.0077984 C21.9687252,69.2538245 22.2871512,70.6661099 23.2551042,71.5857437 C24.2230572,72.5053774 25.6497847,72.7511291 26.8696376,72.2083417 C28.0894905,71.6655542 28.8620748,70.4411938 28.8269362,69.1064936 Z" id="Path_1436" fill="#000000"></path>
            <path d="M283.35496,101.579976 C278.418872,120.856715 266.013849,137.376391 248.878311,147.492269 C231.742773,157.608146 211.285783,160.488394 192.02324,155.497194 C168.958642,149.540197 150.089256,132.99167 141.173376,110.901659 C132.257496,88.8116482 134.35307,63.8013298 146.8206,43.503 L158.859868,46.6035 C155.858482,51.0112421 153.419009,55.7763838 151.59802,60.78842 L159.130804,62.712532 C162.357343,54.0798384 167.734073,46.4136347 174.751812,40.439918 C192.013522,25.6624374 216.601741,23.0640289 236.570949,33.9070589 C256.540156,44.7500889 267.751569,66.7872505 264.758426,89.312384 L272.32513,91.290768 C273.059923,86.2037702 273.176203,81.0465262 272.671432,75.93158 L285.6753,79.25468 C286.015291,86.7703946 285.233253,94.2948148 283.35496,101.579976 Z M162.85575,122.93304 C177.303903,139.837763 199.6404,147.801297 221.524301,143.849884 C243.408202,139.89847 261.549185,124.626218 269.173008,103.736122 L261.606304,101.757738 C251.6854,127.710473 223.924535,142.14471 196.981488,135.359354 C170.038442,128.573997 152.425606,102.712813 155.980378,75.156826 L148.447594,73.232714 C145.831067,91.1039695 151.086465,109.232241 162.85575,122.93304 Z" id="Path_1437" fill="#8B51C6"></path>
        </g>
    </g>
</svg>