<?xml version="1.0" encoding="UTF-8"?>
<svg width="27px" height="21px" viewBox="0 0 27 21" version="1.1" xmlns="http://www.w3.org/2000/svg" xmlns:xlink="http://www.w3.org/1999/xlink">
    <!-- Generator: Sketch 49.3 (51167) - http://www.bohemiancoding.com/sketch -->
    <title>Group</title>
    <desc>Created with Sketch.</desc>
    <defs></defs>
    <g id="Page-1" stroke="none" stroke-width="1" fill="none" fill-rule="evenodd">
        <g id="Group">
            <path d="M17.4924585,14.1320208 C14.9571953,18.5232253 9.34218381,20.0277631 4.95097923,17.4925 C0.559774656,14.9572369 -0.944763144,9.34222534 1.5905,4.95102077 C4.12576314,0.559816192 9.74077466,-0.944721608 14.1319792,1.59054154 C18.5231838,4.12580468 20.0277216,9.74081619 17.4924585,14.1320208 Z" id="Oval"></path>
            <path d="M16.7563369,13.7070208 C14.4557947,17.6916766 9.36063508,19.0569205 5.37597923,16.7563784 C1.39132339,14.4558363 0.0260794679,9.36067661 2.32662159,5.37602077 C4.62716372,1.39136492 9.72232339,0.0261210036 13.7069792,2.32666313 C17.6916351,4.62720525 19.056879,9.72236492 16.7563369,13.7070208 Z" id="Oval" stroke="#5F9F66" stroke-width="1.7"></path>
            <path d="M25.6625734,19.3926089 L16.4974266,14.1011089 L25.6625734,19.3926089 Z" id="Path_1039" stroke="#5F9F66" stroke-width="1.7"></path>
        </g>
    </g>
</svg>